# xmcd
#
# Track frame offsets:
#	150
#	18607
#	37915
#	51944
#	69042
#	84382
#	99493
#	120934
#	138405
#	152796
#	176157
#	192763
#	210145
#	227137
#
# Disc length: 3380 seconds
#
# Revision: 4
# Processed by: cddbd v1.5.2PL0 Copyright (c) Steve Scherf et al.
# Submitted via: audiograbber 1.83.01
#
DISCID=aa0d320e
DTITLE=Various Artist - Your Love Amazes Me
DYEAR=1999
DGENRE=Country
TTITLE0=John Berry - One Song
TTITLE1=Vince Gill - Go Rest High On That Mountain
TTITLE2=George Strait - Love Without End, Amen
TTITLE3=Conway Twitty - Who Did They Think He Was
TTITLE4=Patty Loveless - You Saved Me
TTITLE5=Mark Chesnutt - The Will
TTITLE6=Raybon Bros. - Butterfly Kisses
TTITLE7=Lee Ann Womack - Get Up In Jesus Name
TTITLE8=Lee Greenwood - God Bless The USA
TTITLE9=Susan Ashton - You Move Me
TTITLE10=Mac McAnally - Somewhere Nice Forever
TTITLE11=The Martins - Your Love Amazes Me
TTITLE12=Charlie Daniels - Somebody Was Prayin For Me
TTITLE13=Trisha Yearwood - The Flame
EXTD=
EXTT0=
EXTT1=
EXTT2=
EXTT3=
EXTT4=
EXTT5=
EXTT6=
EXTT7=
EXTT8=
EXTT9=
EXTT10=
EXTT11=
EXTT12=
EXTT13=
PLAYORDER=
